<svg width="985" height="49" viewBox="0 0 985 49" fill="none" xmlns="http://www.w3.org/2000/svg">
<rect y="22" width="985" height="4" fill="#1A9F83"/>
<rect x="2" y="-2" width="417" height="44" rx="5" transform="matrix(1 0 0 -1 282 44)" fill="white" stroke="#1A9F83" stroke-width="4"/>
<path d="M425.593 32V14.8C425.593 14.8 425.609 14.7917 425.643 14.775C425.676 14.7417 425.793 14.725 425.993 14.725H427.193C427.409 14.725 427.534 14.7417 427.568 14.775C427.601 14.7917 427.618 14.8 427.618 14.8V31.6C427.618 31.7333 427.584 31.825 427.518 31.875C427.468 31.925 427.301 31.9583 427.018 31.975C426.734 31.9917 426.259 32 425.593 32ZM422.193 16.4V14.9C422.193 14.6333 422.334 14.5 422.618 14.5H431.118V16C431.118 16.15 431.084 16.2583 431.018 16.325C430.951 16.375 430.843 16.4 430.693 16.4H422.193ZM435.764 32.25C434.947 32.25 434.247 32.1167 433.664 31.85C433.097 31.5667 432.63 31.0833 432.264 30.4C431.914 29.7167 431.655 28.7917 431.489 27.625C431.322 26.4417 431.239 24.95 431.239 23.15C431.239 20.9333 431.414 19.175 431.764 17.875C432.114 16.575 432.639 15.65 433.339 15.1C434.055 14.5333 434.955 14.25 436.039 14.25C436.839 14.25 437.522 14.4 438.089 14.7C438.655 14.9833 439.114 15.4667 439.464 16.15C439.814 16.8167 440.064 17.7167 440.214 18.85C440.38 19.9667 440.464 21.375 440.464 23.075C440.464 25.375 440.297 27.1917 439.964 28.525C439.647 29.8583 439.139 30.8167 438.439 31.4C437.755 31.9667 436.864 32.25 435.764 32.25ZM435.839 30.15C436.455 30.15 436.93 29.925 437.264 29.475C437.614 29.0083 437.864 28.2583 438.014 27.225C438.18 26.175 438.264 24.8083 438.264 23.125C438.264 21.4583 438.197 20.1333 438.064 19.15C437.93 18.15 437.697 17.4333 437.364 17C437.047 16.5667 436.589 16.35 435.989 16.35C435.405 16.35 434.93 16.5833 434.564 17.05C434.197 17.5167 433.93 18.2833 433.764 19.35C433.597 20.4167 433.514 21.85 433.514 23.65C433.514 25.2 433.58 26.45 433.714 27.4C433.864 28.35 434.105 29.05 434.439 29.5C434.789 29.9333 435.255 30.15 435.839 30.15ZM442.307 32V14.975C442.307 14.825 442.348 14.7083 442.432 14.625C442.532 14.5417 442.715 14.5 442.982 14.5H445.457C445.957 14.5 446.448 14.5583 446.932 14.675C447.432 14.775 447.882 14.9667 448.282 15.25C448.698 15.5167 449.032 15.9 449.282 16.4C449.532 16.9 449.657 17.5583 449.657 18.375C449.657 19.2917 449.523 20.0333 449.257 20.6C449.007 21.1667 448.698 21.6 448.332 21.9C447.965 22.1833 447.607 22.35 447.257 22.4C447.54 22.4167 447.848 22.4833 448.182 22.6C448.515 22.7 448.832 22.8833 449.132 23.15C449.448 23.4 449.707 23.7583 449.907 24.225C450.107 24.6917 450.207 25.3 450.207 26.05C450.207 26.8833 450.123 27.625 449.957 28.275C449.807 28.925 449.582 29.4833 449.282 29.95C448.982 30.4167 448.632 30.8083 448.232 31.125C447.848 31.425 447.423 31.65 446.957 31.8C446.49 31.9333 445.99 32 445.457 32H442.307ZM444.357 30.225H445.507C445.823 30.225 446.115 30.15 446.382 30C446.665 29.85 446.915 29.6167 447.132 29.3C447.348 28.9667 447.515 28.55 447.632 28.05C447.765 27.55 447.832 26.9417 447.832 26.225C447.832 25.575 447.773 25.0667 447.657 24.7C447.54 24.3167 447.382 24.0333 447.182 23.85C446.982 23.65 446.74 23.525 446.457 23.475C446.173 23.425 445.865 23.4 445.532 23.4H444.357V30.225ZM444.357 21.65H445.607C445.957 21.65 446.265 21.55 446.532 21.35C446.815 21.15 447.032 20.8333 447.182 20.4C447.348 19.9667 447.432 19.4167 447.432 18.75C447.432 18.0667 447.34 17.55 447.157 17.2C446.99 16.85 446.765 16.6167 446.482 16.5C446.198 16.3667 445.898 16.3 445.582 16.3H444.357V21.65ZM452.372 32.05C452.239 32.05 452.056 32.0417 451.822 32.025C451.589 32.0083 451.347 31.9917 451.097 31.975L455.547 14.775C455.597 14.5417 455.856 14.425 456.322 14.425C456.489 14.425 456.656 14.4333 456.822 14.45C457.006 14.4667 457.156 14.4833 457.272 14.5L461.747 31.625C461.781 31.7583 461.739 31.8667 461.622 31.95C461.522 32.0167 461.272 32.05 460.872 32.05C460.722 32.05 460.547 32.0417 460.347 32.025C460.164 32.025 459.939 32.0167 459.672 32L457.322 22.15C457.189 21.5833 457.064 21.0083 456.947 20.425C456.831 19.8417 456.722 19.2833 456.622 18.75C456.539 18.2 456.481 17.725 456.447 17.325C456.414 17.725 456.347 18.2 456.247 18.75C456.164 19.2833 456.064 19.8417 455.947 20.425C455.831 21.0083 455.697 21.5833 455.547 22.15L453.322 31.65C453.289 31.7833 453.222 31.8833 453.122 31.95C453.022 32.0167 452.772 32.05 452.372 32.05ZM453.672 27.55V25.7H459.647V27.55H453.672ZM463.587 24.9C463.337 24.9 463.204 24.8583 463.187 24.775C463.17 24.6917 463.162 24.55 463.162 24.35V14.975C463.162 14.925 463.162 14.8333 463.162 14.7C463.179 14.5667 463.279 14.5 463.462 14.5H465.787C466.837 14.5 467.704 14.675 468.387 15.025C469.07 15.3583 469.57 15.8917 469.887 16.625C470.22 17.3417 470.387 18.2833 470.387 19.45C470.387 20.4833 470.262 21.35 470.012 22.05C469.779 22.7333 469.445 23.2833 469.012 23.7C468.595 24.1167 468.112 24.425 467.562 24.625C467.012 24.8083 466.429 24.9 465.812 24.9H463.587ZM462.887 32V14.9C462.887 14.7667 462.912 14.6667 462.962 14.6C463.029 14.5333 463.145 14.5 463.312 14.5H464.512C464.712 14.5 464.829 14.5667 464.862 14.7C464.895 14.8333 464.912 14.9 464.912 14.9V31.6C464.912 31.7333 464.879 31.825 464.812 31.875C464.762 31.925 464.595 31.9583 464.312 31.975C464.045 31.9917 463.57 32 462.887 32ZM464.862 23.025H466.012C466.479 23.025 466.862 22.9 467.162 22.65C467.479 22.4 467.72 22 467.887 21.45C468.054 20.8833 468.137 20.1333 468.137 19.2C468.137 18.6167 468.079 18.1083 467.962 17.675C467.845 17.225 467.637 16.8833 467.337 16.65C467.054 16.4 466.662 16.275 466.162 16.275H464.862V23.025ZM471.921 32V14.9C471.921 14.7667 471.946 14.675 471.996 14.625C472.046 14.575 472.196 14.5417 472.446 14.525C472.712 14.5083 473.171 14.5 473.821 14.5V23.025C473.821 23.625 473.812 24.1833 473.796 24.7C473.796 25.2167 473.779 25.7583 473.746 26.325C473.712 26.875 473.662 27.5083 473.596 28.225C473.862 27.3083 474.204 26.325 474.621 25.275C475.037 24.2083 475.512 22.9833 476.046 21.6L478.446 15C478.512 14.8167 478.596 14.6917 478.696 14.625C478.796 14.5583 478.962 14.525 479.196 14.525C479.446 14.5083 479.812 14.5 480.296 14.5V31.6C480.296 31.7333 480.254 31.825 480.171 31.875C480.104 31.925 479.937 31.9583 479.671 31.975C479.404 31.9917 478.971 32 478.371 32V25.725C478.371 25.0417 478.379 24.375 478.396 23.725C478.412 23.075 478.429 22.4417 478.446 21.825C478.479 21.2083 478.512 20.6167 478.546 20.05C478.579 19.4833 478.621 18.9333 478.671 18.4C478.421 19.3667 478.104 20.4 477.721 21.5C477.337 22.6 476.871 23.8417 476.321 25.225L473.871 31.5C473.804 31.6833 473.721 31.8083 473.621 31.875C473.521 31.9417 473.346 31.9833 473.096 32C472.846 32 472.454 32 471.921 32ZM486.447 32V14.975C486.447 14.825 486.489 14.7083 486.572 14.625C486.672 14.5417 486.856 14.5 487.122 14.5H489.597C490.097 14.5 490.589 14.5583 491.072 14.675C491.572 14.775 492.022 14.9667 492.422 15.25C492.839 15.5167 493.172 15.9 493.422 16.4C493.672 16.9 493.797 17.5583 493.797 18.375C493.797 19.2917 493.664 20.0333 493.397 20.6C493.147 21.1667 492.839 21.6 492.472 21.9C492.106 22.1833 491.747 22.35 491.397 22.4C491.681 22.4167 491.989 22.4833 492.322 22.6C492.656 22.7 492.972 22.8833 493.272 23.15C493.589 23.4 493.847 23.7583 494.047 24.225C494.247 24.6917 494.347 25.3 494.347 26.05C494.347 26.8833 494.264 27.625 494.097 28.275C493.947 28.925 493.722 29.4833 493.422 29.95C493.122 30.4167 492.772 30.8083 492.372 31.125C491.989 31.425 491.564 31.65 491.097 31.8C490.631 31.9333 490.131 32 489.597 32H486.447ZM488.497 30.225H489.647C489.964 30.225 490.256 30.15 490.522 30C490.806 29.85 491.056 29.6167 491.272 29.3C491.489 28.9667 491.656 28.55 491.772 28.05C491.906 27.55 491.972 26.9417 491.972 26.225C491.972 25.575 491.914 25.0667 491.797 24.7C491.681 24.3167 491.522 24.0333 491.322 23.85C491.122 23.65 490.881 23.525 490.597 23.475C490.314 23.425 490.006 23.4 489.672 23.4H488.497V30.225ZM488.497 21.65H489.747C490.097 21.65 490.406 21.55 490.672 21.35C490.956 21.15 491.172 20.8333 491.322 20.4C491.489 19.9667 491.572 19.4167 491.572 18.75C491.572 18.0667 491.481 17.55 491.297 17.2C491.131 16.85 490.906 16.6167 490.622 16.5C490.339 16.3667 490.039 16.3 489.722 16.3H488.497V21.65ZM507.193 32.05C506.977 32.05 506.752 32.0417 506.518 32.025C506.302 32.0083 506.068 31.9917 505.818 31.975L505.093 27.125C504.993 26.2583 504.835 25.5917 504.618 25.125C504.418 24.6583 504.177 24.3333 503.893 24.15C503.61 23.95 503.302 23.85 502.968 23.85H502.193V31.6C502.193 31.7333 502.168 31.825 502.118 31.875C502.068 31.925 501.893 31.9583 501.593 31.975C501.31 31.9917 500.827 32 500.143 32V14.9C500.143 14.7667 500.168 14.675 500.218 14.625C500.285 14.575 500.46 14.5417 500.743 14.525C501.027 14.5083 501.51 14.5 502.193 14.5V21.9H503.093C503.427 21.9 503.743 21.75 504.043 21.45C504.343 21.1333 504.568 20.6417 504.718 19.975L505.918 14.625C506.168 14.5583 506.402 14.5167 506.618 14.5C506.852 14.4833 507.052 14.475 507.218 14.475C507.602 14.475 507.843 14.5167 507.943 14.6C508.043 14.6833 508.068 14.8417 508.018 15.075L506.693 20.325C506.543 20.925 506.327 21.425 506.043 21.825C505.777 22.2083 505.493 22.4917 505.193 22.675C505.76 22.9917 506.218 23.5083 506.568 24.225C506.918 24.9417 507.16 25.8 507.293 26.8L508.043 31.55C508.077 31.7333 508.035 31.8667 507.918 31.95C507.802 32.0167 507.56 32.05 507.193 32.05ZM513.669 32.25C512.852 32.25 512.152 32.1167 511.569 31.85C511.002 31.5667 510.536 31.0833 510.169 30.4C509.819 29.7167 509.561 28.7917 509.394 27.625C509.227 26.4417 509.144 24.95 509.144 23.15C509.144 20.9333 509.319 19.175 509.669 17.875C510.019 16.575 510.544 15.65 511.244 15.1C511.961 14.5333 512.861 14.25 513.944 14.25C514.744 14.25 515.427 14.4 515.994 14.7C516.561 14.9833 517.019 15.4667 517.369 16.15C517.719 16.8167 517.969 17.7167 518.119 18.85C518.286 19.9667 518.369 21.375 518.369 23.075C518.369 25.375 518.202 27.1917 517.869 28.525C517.552 29.8583 517.044 30.8167 516.344 31.4C515.661 31.9667 514.769 32.25 513.669 32.25ZM513.744 30.15C514.361 30.15 514.836 29.925 515.169 29.475C515.519 29.0083 515.769 28.2583 515.919 27.225C516.086 26.175 516.169 24.8083 516.169 23.125C516.169 21.4583 516.102 20.1333 515.969 19.15C515.836 18.15 515.602 17.4333 515.269 17C514.952 16.5667 514.494 16.35 513.894 16.35C513.311 16.35 512.836 16.5833 512.469 17.05C512.102 17.5167 511.836 18.2833 511.669 19.35C511.502 20.4167 511.419 21.85 511.419 23.65C511.419 25.2 511.486 26.45 511.619 27.4C511.769 28.35 512.011 29.05 512.344 29.5C512.694 29.9333 513.161 30.15 513.744 30.15ZM520.887 24.9C520.637 24.9 520.503 24.8583 520.487 24.775C520.47 24.6917 520.462 24.55 520.462 24.35V14.975C520.462 14.925 520.462 14.8333 520.462 14.7C520.478 14.5667 520.578 14.5 520.762 14.5H523.087C524.137 14.5 525.003 14.675 525.687 15.025C526.37 15.3583 526.87 15.8917 527.187 16.625C527.52 17.3417 527.687 18.2833 527.687 19.45C527.687 20.4833 527.562 21.35 527.312 22.05C527.078 22.7333 526.745 23.2833 526.312 23.7C525.895 24.1167 525.412 24.425 524.862 24.625C524.312 24.8083 523.728 24.9 523.112 24.9H520.887ZM520.187 32V14.9C520.187 14.7667 520.212 14.6667 520.262 14.6C520.328 14.5333 520.445 14.5 520.612 14.5H521.812C522.012 14.5 522.128 14.5667 522.162 14.7C522.195 14.8333 522.212 14.9 522.212 14.9V31.6C522.212 31.7333 522.178 31.825 522.112 31.875C522.062 31.925 521.895 31.9583 521.612 31.975C521.345 31.9917 520.87 32 520.187 32ZM522.162 23.025H523.312C523.778 23.025 524.162 22.9 524.462 22.65C524.778 22.4 525.02 22 525.187 21.45C525.353 20.8833 525.437 20.1333 525.437 19.2C525.437 18.6167 525.378 18.1083 525.262 17.675C525.145 17.225 524.937 16.8833 524.637 16.65C524.353 16.4 523.962 16.275 523.462 16.275H522.162V23.025ZM532.371 32.225C531.621 32.225 530.962 32.1333 530.396 31.95C529.846 31.7667 529.412 31.525 529.096 31.225C528.796 30.925 528.646 30.6083 528.646 30.275C528.646 30.075 528.671 29.8667 528.721 29.65C528.787 29.4333 528.896 29.2167 529.046 29C529.429 29.4333 529.879 29.7583 530.396 29.975C530.912 30.175 531.512 30.275 532.196 30.275C532.512 30.275 532.812 30.2167 533.096 30.1C533.379 29.9833 533.629 29.7917 533.846 29.525C534.062 29.2583 534.229 28.9 534.346 28.45C534.479 28 534.546 27.425 534.546 26.725C534.546 26.075 534.446 25.5417 534.246 25.125C534.046 24.6917 533.779 24.375 533.446 24.175C533.112 23.9583 532.721 23.85 532.271 23.85H531.096C530.712 23.85 530.521 23.6167 530.521 23.15V21.95H532.996C533.362 21.4833 533.612 20.9833 533.746 20.45C533.879 19.9 533.946 19.3333 533.946 18.75C533.946 17.9333 533.787 17.3083 533.471 16.875C533.171 16.4417 532.737 16.225 532.171 16.225C531.721 16.225 531.287 16.3417 530.871 16.575C530.471 16.8083 530.129 17.0833 529.846 17.4C529.696 17.1833 529.562 16.975 529.446 16.775C529.346 16.575 529.296 16.3833 529.296 16.2C529.296 15.9667 529.396 15.7 529.596 15.4C529.796 15.0833 530.121 14.8167 530.571 14.6C531.037 14.3833 531.671 14.275 532.471 14.275C533.704 14.275 534.629 14.625 535.246 15.325C535.862 16.025 536.171 16.9667 536.171 18.15C536.171 18.9667 536.012 19.7667 535.696 20.55C535.396 21.3167 535.029 21.9333 534.596 22.4C535.262 22.75 535.779 23.275 536.146 23.975C536.529 24.6583 536.721 25.5333 536.721 26.6C536.721 27.5833 536.612 28.4333 536.396 29.15C536.196 29.8667 535.904 30.45 535.521 30.9C535.137 31.35 534.679 31.6833 534.146 31.9C533.612 32.1167 533.021 32.225 532.371 32.225ZM538.327 32V14.9C538.327 14.7667 538.352 14.675 538.402 14.625C538.452 14.575 538.602 14.5417 538.852 14.525C539.119 14.5083 539.577 14.5 540.227 14.5V23.025C540.227 23.625 540.219 24.1833 540.202 24.7C540.202 25.2167 540.185 25.7583 540.152 26.325C540.119 26.875 540.069 27.5083 540.002 28.225C540.269 27.3083 540.61 26.325 541.027 25.275C541.444 24.2083 541.919 22.9833 542.452 21.6L544.852 15C544.919 14.8167 545.002 14.6917 545.102 14.625C545.202 14.5583 545.369 14.525 545.602 14.525C545.852 14.5083 546.219 14.5 546.702 14.5V31.6C546.702 31.7333 546.66 31.825 546.577 31.875C546.51 31.925 546.344 31.9583 546.077 31.975C545.81 31.9917 545.377 32 544.777 32V25.725C544.777 25.0417 544.785 24.375 544.802 23.725C544.819 23.075 544.835 22.4417 544.852 21.825C544.885 21.2083 544.919 20.6167 544.952 20.05C544.985 19.4833 545.027 18.9333 545.077 18.4C544.827 19.3667 544.51 20.4 544.127 21.5C543.744 22.6 543.277 23.8417 542.727 25.225L540.277 31.5C540.21 31.6833 540.127 31.8083 540.027 31.875C539.927 31.9417 539.752 31.9833 539.502 32C539.252 32 538.86 32 538.327 32ZM554.654 32V14.9C554.654 14.7667 554.679 14.675 554.729 14.625C554.796 14.575 554.963 14.5417 555.229 14.525C555.513 14.5083 555.996 14.5 556.679 14.5V31.6C556.679 31.7333 556.654 31.825 556.604 31.875C556.554 31.925 556.388 31.9583 556.104 31.975C555.821 31.9917 555.338 32 554.654 32ZM548.654 32V14.9C548.654 14.7667 548.679 14.675 548.729 14.625C548.779 14.575 548.946 14.5417 549.229 14.525C549.513 14.5083 549.996 14.5 550.679 14.5V31.6C550.679 31.7333 550.654 31.825 550.604 31.875C550.554 31.925 550.388 31.9583 550.104 31.975C549.821 31.9917 549.338 32 548.654 32ZM549.654 23.525V21.625H555.579V23.525H549.654ZM558.859 32V15.425C558.859 15.1083 558.892 14.8917 558.959 14.775C559.025 14.6417 559.2 14.5667 559.484 14.55C559.784 14.5167 560.267 14.5 560.934 14.5V31.6C560.934 31.7333 560.9 31.825 560.834 31.875C560.767 31.925 560.592 31.9583 560.309 31.975C560.042 31.9917 559.559 32 558.859 32Z" fill="#1A9F83"/>
</svg>
