<svg width="985" height="49" viewBox="0 0 985 49" fill="none" xmlns="http://www.w3.org/2000/svg">
<rect y="22" width="985" height="4" fill="#1A9F83"/>
<rect x="2" y="-2" width="417" height="44" rx="5" transform="matrix(1 0 0 -1 282 44)" fill="white" stroke="#1A9F83" stroke-width="4"/>
<path d="M451.34 35.95C450.857 35.95 450.532 35.9167 450.365 35.85C450.198 35.7833 450.115 35.625 450.115 35.375V30.1H450.54C450.79 30.1 451.015 30.0167 451.215 29.85C451.415 29.6667 451.598 29.3083 451.765 28.775C451.932 28.225 452.082 27.4 452.215 26.3C452.365 25.1833 452.507 23.7083 452.64 21.875C452.773 20.025 452.915 17.7 453.065 14.9C453.082 14.7667 453.107 14.675 453.14 14.625C453.19 14.575 453.307 14.5417 453.49 14.525C453.69 14.5083 454.015 14.5 454.465 14.5H459.515V30.1H460.765V35.375C460.765 35.625 460.673 35.7833 460.49 35.85C460.323 35.9167 460.007 35.95 459.54 35.95C459.39 35.2333 459.257 34.5417 459.14 33.875C459.04 33.225 458.973 32.6 458.94 32H451.94C451.907 32.6 451.84 33.225 451.74 33.875C451.64 34.5417 451.507 35.2333 451.34 35.95ZM453.115 30.1H457.49V16.4H455.015C454.882 18.5 454.748 20.3167 454.615 21.85C454.482 23.3833 454.34 24.6917 454.19 25.775C454.057 26.8417 453.898 27.725 453.715 28.425C453.548 29.1083 453.348 29.6667 453.115 30.1ZM466.562 32.25C465.745 32.25 465.045 32.1167 464.462 31.85C463.895 31.5667 463.429 31.0833 463.062 30.4C462.712 29.7167 462.454 28.7917 462.287 27.625C462.12 26.4417 462.037 24.95 462.037 23.15C462.037 20.9333 462.212 19.175 462.562 17.875C462.912 16.575 463.437 15.65 464.137 15.1C464.854 14.5333 465.754 14.25 466.837 14.25C467.637 14.25 468.32 14.4 468.887 14.7C469.454 14.9833 469.912 15.4667 470.262 16.15C470.612 16.8167 470.862 17.7167 471.012 18.85C471.179 19.9667 471.262 21.375 471.262 23.075C471.262 25.375 471.095 27.1917 470.762 28.525C470.445 29.8583 469.937 30.8167 469.237 31.4C468.554 31.9667 467.662 32.25 466.562 32.25ZM466.637 30.15C467.254 30.15 467.729 29.925 468.062 29.475C468.412 29.0083 468.662 28.2583 468.812 27.225C468.979 26.175 469.062 24.8083 469.062 23.125C469.062 21.4583 468.995 20.1333 468.862 19.15C468.729 18.15 468.495 17.4333 468.162 17C467.845 16.5667 467.387 16.35 466.787 16.35C466.204 16.35 465.729 16.5833 465.362 17.05C464.995 17.5167 464.729 18.2833 464.562 19.35C464.395 20.4167 464.312 21.85 464.312 23.65C464.312 25.2 464.379 26.45 464.512 27.4C464.662 28.35 464.904 29.05 465.237 29.5C465.587 29.9333 466.054 30.15 466.637 30.15ZM480.86 32.25C480.377 32.25 479.927 32.1917 479.51 32.075C479.093 31.9583 478.71 31.7417 478.36 31.425C478.027 31.1083 477.735 30.65 477.485 30.05C477.235 29.4333 477.043 28.6333 476.91 27.65C476.777 26.65 476.71 25.425 476.71 23.975C476.71 22.2583 476.802 20.825 476.985 19.675C477.185 18.5083 477.452 17.575 477.785 16.875C478.118 16.1583 478.493 15.6083 478.91 15.225C479.343 14.8417 479.793 14.5833 480.26 14.45C480.727 14.3167 481.185 14.25 481.635 14.25C482.252 14.25 482.727 14.325 483.06 14.475C483.41 14.6083 483.652 14.7833 483.785 15C483.918 15.2 483.985 15.4083 483.985 15.625C483.985 15.8583 483.952 16.0833 483.885 16.3C483.818 16.5167 483.743 16.7 483.66 16.85C483.577 16.7833 483.452 16.7083 483.285 16.625C483.135 16.525 482.952 16.4417 482.735 16.375C482.518 16.2917 482.285 16.25 482.035 16.25C481.718 16.25 481.402 16.3083 481.085 16.425C480.785 16.525 480.493 16.7333 480.21 17.05C479.943 17.35 479.71 17.7833 479.51 18.35C479.31 18.9167 479.143 19.65 479.01 20.55C478.893 21.45 478.835 22.5583 478.835 23.875C478.835 25.1417 478.893 26.175 479.01 26.975C479.143 27.775 479.318 28.4 479.535 28.85C479.752 29.2833 480.01 29.5833 480.31 29.75C480.627 29.9167 480.968 30 481.335 30C481.818 30 482.268 29.9167 482.685 29.75C483.102 29.5833 483.418 29.4083 483.635 29.225C483.718 29.3917 483.793 29.5833 483.86 29.8C483.927 30.0167 483.96 30.2333 483.96 30.45C483.96 30.7667 483.827 31.0667 483.56 31.35C483.31 31.6167 482.952 31.8333 482.485 32C482.018 32.1667 481.477 32.25 480.86 32.25ZM485.58 32V14.9C485.58 14.7667 485.605 14.675 485.655 14.625C485.722 14.575 485.897 14.5417 486.18 14.525C486.48 14.5083 486.955 14.5 487.605 14.5H493.355V31.6C493.355 31.7333 493.322 31.825 493.255 31.875C493.205 31.925 493.039 31.9583 492.755 31.975C492.472 31.9917 491.997 32 491.33 32V16.4H487.605V31.6C487.605 31.7333 487.572 31.825 487.505 31.875C487.455 31.925 487.289 31.9583 487.005 31.975C486.722 31.9917 486.247 32 485.58 32ZM495.641 32.225C495.257 32.225 494.949 32.1 494.716 31.85C494.482 31.5833 494.416 31.15 494.516 30.55C495.032 30.5333 495.449 30.2417 495.766 29.675C496.082 29.1083 496.332 28.2083 496.516 26.975C496.716 25.7417 496.882 24.15 497.016 22.2C497.149 20.25 497.282 17.8917 497.416 15.125C497.432 14.9417 497.466 14.8083 497.516 14.725C497.582 14.6417 497.732 14.5833 497.966 14.55C498.216 14.5167 498.624 14.5 499.191 14.5H503.766V31.6C503.766 31.7333 503.732 31.825 503.666 31.875C503.616 31.925 503.449 31.9583 503.166 31.975C502.882 31.9917 502.407 32 501.741 32V16.4H499.316C499.149 19.95 498.932 22.9 498.666 25.25C498.399 27.5833 498.024 29.3333 497.541 30.5C497.074 31.65 496.441 32.225 495.641 32.225ZM506.193 32.05C506.06 32.05 505.876 32.0417 505.643 32.025C505.41 32.0083 505.168 31.9917 504.918 31.975L509.368 14.775C509.418 14.5417 509.676 14.425 510.143 14.425C510.31 14.425 510.476 14.4333 510.643 14.45C510.826 14.4667 510.976 14.4833 511.093 14.5L515.568 31.625C515.601 31.7583 515.56 31.8667 515.443 31.95C515.343 32.0167 515.093 32.05 514.693 32.05C514.543 32.05 514.368 32.0417 514.168 32.025C513.985 32.025 513.76 32.0167 513.493 32L511.143 22.15C511.01 21.5833 510.885 21.0083 510.768 20.425C510.651 19.8417 510.543 19.2833 510.443 18.75C510.36 18.2 510.301 17.725 510.268 17.325C510.235 17.725 510.168 18.2 510.068 18.75C509.985 19.2833 509.885 19.8417 509.768 20.425C509.651 21.0083 509.518 21.5833 509.368 22.15L507.143 31.65C507.11 31.7833 507.043 31.8833 506.943 31.95C506.843 32.0167 506.593 32.05 506.193 32.05ZM507.493 27.55V25.7H513.468V27.55H507.493ZM517.988 32V14.8C517.988 14.8 518.004 14.7917 518.038 14.775C518.071 14.7417 518.188 14.725 518.388 14.725H519.588C519.804 14.725 519.929 14.7417 519.963 14.775C519.996 14.7917 520.013 14.8 520.013 14.8V31.6C520.013 31.7333 519.979 31.825 519.913 31.875C519.863 31.925 519.696 31.9583 519.413 31.975C519.129 31.9917 518.654 32 517.988 32ZM514.588 16.4V14.9C514.588 14.6333 514.729 14.5 515.013 14.5H523.513V16C523.513 16.15 523.479 16.2583 523.413 16.325C523.346 16.375 523.238 16.4 523.088 16.4H514.588ZM524.814 32V14.9C524.814 14.7667 524.839 14.675 524.889 14.625C524.939 14.575 525.089 14.5417 525.339 14.525C525.606 14.5083 526.064 14.5 526.714 14.5V23.025C526.714 23.625 526.706 24.1833 526.689 24.7C526.689 25.2167 526.672 25.7583 526.639 26.325C526.606 26.875 526.556 27.5083 526.489 28.225C526.756 27.3083 527.097 26.325 527.514 25.275C527.931 24.2083 528.406 22.9833 528.939 21.6L531.339 15C531.406 14.8167 531.489 14.6917 531.589 14.625C531.689 14.5583 531.856 14.525 532.089 14.525C532.339 14.5083 532.706 14.5 533.189 14.5V31.6C533.189 31.7333 533.147 31.825 533.064 31.875C532.997 31.925 532.831 31.9583 532.564 31.975C532.297 31.9917 531.864 32 531.264 32V25.725C531.264 25.0417 531.272 24.375 531.289 23.725C531.306 23.075 531.322 22.4417 531.339 21.825C531.372 21.2083 531.406 20.6167 531.439 20.05C531.472 19.4833 531.514 18.9333 531.564 18.4C531.314 19.3667 530.997 20.4 530.614 21.5C530.231 22.6 529.764 23.8417 529.214 25.225L526.764 31.5C526.697 31.6833 526.614 31.8083 526.514 31.875C526.414 31.9417 526.239 31.9833 525.989 32C525.739 32 525.347 32 524.814 32Z" fill="#1A9F83"/>
</svg>
